<svg width="800" height="494" viewBox="0 0 800 494" fill="none" xmlns="http://www.w3.org/2000/svg">
<g filter="url(#filter0_d_106_6)">
<path d="M733.736 126.12C674.405 2.02623 578.63 -14.1326 526.043 10.1479C503.169 20.7078 480.295 27.9382 461.754 32.7431C439.41 38.5391 411.521 41.1567 400 41.1567C388.508 41.1567 360.619 38.5366 338.259 32.7431C319.718 27.9382 296.829 20.7078 273.97 10.1479C221.383 -14.1326 125.608 2.02623 66.2489 126.12C6.91797 250.214 -47.0497 464.692 66.2489 483.555C179.56 502.432 203.828 372.974 252.376 333.841C300.939 294.724 336.031 287.982 379.188 287.982H420.825C463.998 287.982 499.045 294.726 547.609 333.841C596.172 372.972 620.453 502.444 733.736 483.555C847.05 464.692 793.095 250.214 733.736 126.12ZM143.132 174.697C120.035 174.697 101.297 155.974 101.297 132.862C101.297 109.764 120.035 91.0418 143.132 91.0418C166.229 91.0418 184.952 109.764 184.952 132.862C184.952 155.974 166.242 174.697 143.132 174.697ZM230.129 25.6946C253.239 25.6946 271.964 44.4043 271.964 67.5143C271.964 90.6243 253.242 109.334 230.129 109.334C207.045 109.334 188.309 90.6243 188.309 67.5143C188.309 44.4018 207.032 25.6946 230.129 25.6946ZM260.469 258.308C226.966 258.308 199.773 231.144 199.773 197.612C199.773 164.096 226.953 136.916 260.469 136.916C294.014 136.916 321.165 164.08 321.165 197.612C321.178 231.144 294.029 258.308 260.469 258.308ZM346.811 114.057C328.562 114.057 313.769 106.353 313.769 96.866C313.769 87.351 328.562 79.6622 346.811 79.6622C365.075 79.6622 379.853 87.3664 379.853 96.866C379.856 106.353 365.062 114.057 346.811 114.057ZM414.182 96.8532C414.182 87.3382 428.975 79.6494 447.224 79.6494C465.473 79.6494 480.266 87.3536 480.266 96.8532C480.266 106.353 465.473 114.044 447.224 114.044C428.975 114.057 414.182 106.353 414.182 96.8532ZM533.54 258.308C500.008 258.308 472.857 231.144 472.857 197.612C472.857 164.096 500.008 136.916 533.54 136.916C567.056 136.916 594.249 164.08 594.249 197.612C594.236 231.144 567.056 258.308 533.54 258.308ZM563.893 109.334C540.796 109.334 522.073 90.6243 522.073 67.5143C522.073 44.4043 540.796 25.6946 563.893 25.6946C586.99 25.6946 605.713 44.4043 605.713 67.5143C605.713 90.6243 586.99 109.334 563.893 109.334ZM650.89 174.697C627.78 174.697 609.071 155.974 609.071 132.862C609.071 109.764 627.78 91.0418 650.89 91.0418C673.988 91.0418 692.71 109.764 692.71 132.862C692.71 155.974 673.988 174.697 650.89 174.697Z" fill="#444444"/>
</g>
<defs>
<filter id="filter0_d_106_6" x="-3.99902" y="0.574219" width="807.998" height="492.852" filterUnits="userSpaceOnUse" color-interpolation-filters="sRGB">
<feFlood flood-opacity="0" result="BackgroundImageFix"/>
<feColorMatrix in="SourceAlpha" type="matrix" values="0 0 0 0 0 0 0 0 0 0 0 0 0 0 0 0 0 0 127 0" result="hardAlpha"/>
<feOffset dy="4"/>
<feGaussianBlur stdDeviation="2"/>
<feComposite in2="hardAlpha" operator="out"/>
<feColorMatrix type="matrix" values="0 0 0 0 0 0 0 0 0 0 0 0 0 0 0 0 0 0 0.25 0"/>
<feBlend mode="normal" in2="BackgroundImageFix" result="effect1_dropShadow_106_6"/>
<feBlend mode="normal" in="SourceGraphic" in2="effect1_dropShadow_106_6" result="shape"/>
</filter>
</defs>
</svg>
